<svg id="afea8be8-319a-491d-a669-588843881c5b" data-name="svg5" xmlns="http://www.w3.org/2000/svg"
     viewBox="0 0 3088 410.16">
  <defs>
    <style>.f31fb6b7-a744-47d9-bfb3-72510316879f{fill-rule:evenodd;}.b4fae2c3-724c-4f3c-b474-ed901e8b2ca8{fill:#fff;}</style>
  </defs>
  <path id="e18fca19-8b24-4044-b87f-a185d3f643a8"
        class="f31fb6b7-a744-47d9-bfb3-72510316879f"
        d="M1162.3,404.66h87.4V244.26h196.8v-91.1H1249.7V93.06H1452V2H1162.3Zm-47.4-302.5a121.68,121.68,0,0,0-21.9-40.1,202.37,202.37,0,0,0-36.4-32.8,203.28,203.28,0,0,0-52.8-21.9A293.13,293.13,0,0,0,932.7.06H746.9v404.4H932.7a294.08,294.08,0,0,0,83.8-12.8,185,185,0,0,0,56.5-32.8,144,144,0,0,0,34.6-45.5,202.69,202.69,0,0,0,18.2-52.8,245.65,245.65,0,0,0,3.6-52.8v-16.4a177.91,177.91,0,0,0-3.6-45.5,184.1,184.1,0,0,0-10.9-43.7m-76.5,100.2c0,69.2-38.3,103.8-113,103.8H746.9l87.4-87.4V94.86h91.1c74.7,0,113,34.6,113,103.8Zm446.4,202.3h87.4V122.26h-85.6l85.6-85.6V2.06h-87.4ZM87.4,244.26h204v-92.9H87.4V91.26H249.5L295,45.76V.26H0v404.4H298.8V310H87.4Zm1616,0h204v-92.9h-204V91.26h164l45.5-45.5V.26h-297v404.4h300.6V310H1703.3v-65.7Zm-1087.6,11L437.2,2H338.8v402.6h85.6V136.86l191.3,267.8,85.6-87.4V2H615.7v253.3Zm2064.1,154.9H3088V2.06H2679.9Zm-47.4-308a94.56,94.56,0,0,0-21.9-40.1,155.88,155.88,0,0,0-36.4-32.8,178.36,178.36,0,0,0-52.8-21.9,293.13,293.13,0,0,0-71.1-7.3H2264.5v306.2l87.4-87.4v-124H2443c76.5,0,113,34.6,113,103.8v3.6c0,69.2-36.4,103.8-113,103.8H2264.5v98.4h185.8a287.22,287.22,0,0,0,83.8-12.8,166.19,166.19,0,0,0,56.5-32.8,144,144,0,0,0,34.6-45.5,152.8,152.8,0,0,0,18.2-52.8,253.81,253.81,0,0,0,5.5-52.8v-16.4a345.93,345.93,0,0,0-3.6-45.5,403.15,403.15,0,0,0-12.8-43.7ZM2042.2,2h-87.4v402.6h282.4V304.46H2042.3V2Z"/>
  <path class="b4fae2c3-724c-4f3c-b474-ed901e8b2ca8"
        d="M2744.79,290.47l32.06,95.34-20.44,6.86-7.56-22.26h-31.5l-6.86,22.26-20.44-6.86,32.06-95.34Zm-9.24,37.8-1.82-10.36h-.56l-1.82,10.36-7.84,23.24h19.88Z"/>
  <path class="b4fae2c3-724c-4f3c-b474-ed901e8b2ca8"
        d="M2803.59,339.05l36.4,8.82,6.3,10.36v16.66l-15,15H2800l-20.3-6.72,6-18.2,18.2,6h17.92l2.8-2.8v-2.1l-1.12-1.68-36.4-8.82-6.3-10.36V328.83l15-15h31.5l20.3,6.72-6,18.2-18.2-6h-18.06l-2.8,2.8v2Z"/>
  <path class="b4fae2c3-724c-4f3c-b474-ed901e8b2ca8"
        d="M2854.55,337v-20.3h12.6v-22h21.7v22h18.9V337h-18.9v29.26l3.36,3.36h7.28c5-1.54,12.46-3.92,17.36-5.46l6,19.18-21,6.58h-19.74l-15-15V337Z"/>
  <path class="b4fae2c3-724c-4f3c-b474-ed901e8b2ca8"
        d="M2953.81,341.43v48.44h-21.7V337.51l-5-21.84,17.22-3.92,2.52,10.92,7.7-8.82h26.32l16.24,16-14.42,14.7L2972,334.15h-11.9Z"/>
  <path class="b4fae2c3-724c-4f3c-b474-ed901e8b2ca8"
        d="M3055.87,389.87h-38.22l-15-15.12V329l15-15.12h38.22l15,15.12v45.78Zm-9.38-20.3,2.66-2.66v-30.1l-2.66-2.66H3027l-2.66,2.66v30.1l2.66,2.66Z"/>
  <style>
    @media (prefers-color-scheme:dark){:root{filter:invert(100%)}}
  </style>
</svg>